<svg xmlns="http://www.w3.org/2000/svg" width="124" height="124" fill="none" viewBox="0 0 124 124">
	<path fill="#000" d="M113.117 85.828H9.883c-1.217 0-2.26 1.043-2.26 2.26v8.516c0 1.216 1.043 2.26 2.26 2.26h103.234c1.216 0 2.259-1.043 2.259-2.26v-8.516c0-1.217-1.042-2.26-2.259-2.26ZM9.97 75.4h10.34c1.478 0 2.955-1.477 2.955-2.954v-15.12c0-1.477.87-2.78 2.346-2.78H37.43c1.478 0 2.433 1.303 2.433 2.78v15.207c0 1.477 1.39 2.954 2.868 2.954h10.428c1.477 0 2.346-1.477 2.346-2.954v-45.36c0-1.478-.869-2.173-2.346-2.173H42.73c-1.477 0-2.867.782-2.867 2.172V39.6c0 1.477-.956 2.78-2.434 2.78H25.611c-1.477 0-2.346-1.303-2.346-2.78V27.172c0-1.477-1.477-2.172-2.954-2.172H9.97c-1.477 0-2.346.782-2.346 2.172v45.274c0 1.477.869 2.954 2.346 2.954Zm93.154-23.636c.781-.26 1.39-.608 1.999-.956 2.084-1.303 3.736-2.954 4.953-4.953 1.215-1.998 1.825-4.431 1.825-7.212 0-3.215-.783-5.91-2.347-8.169-1.564-2.259-3.649-3.562-6.169-4.431-2.52-.87-6.257-1.043-11.036-1.043h-24.68c-.78 0-1.824.174-1.824.956v47.793c0 .782 1.043 1.651 1.825 1.651h12.947c.782 0 1.825-.869 1.825-1.65V55.934c0-.782.435-1.39 1.13-1.39 1.391 0 2.608.348 3.737 1.13.87.608 1.738 1.912 2.781 3.91l7.908 14.946c.26.435.695.87 1.216.87h14.599c1.043 0 1.738-1.217 1.216-2.173-2.26-4.432-4.257-9.124-7.125-13.295-1.13-1.651-2.346-3.563-3.823-4.867-.957-.782-2.869-2.52-.957-3.302Zm-7.734-9.298c-.782 1.043-1.999 1.738-3.302 2.086-2.78.782-5.736.521-8.603.521-.782 0-1.13-.608-1.13-1.39v-7.56c0-.782.174-1.564.956-1.564h5.475c2.433 0 5.04.174 6.604 2.433 1.13 1.564 1.13 3.91 0 5.474Z"/>
</svg>
